<svg width="54" height="47" viewBox="0 0 54 47" fill="none" xmlns="http://www.w3.org/2000/svg">
<path d="M32.7638 12.3186C32.294 12.7287 32.0308 13.2801 32.0308 13.8544C32.0308 14.4286 32.294 14.98 32.7638 15.3902L36.8669 18.9006C37.3463 19.3026 37.9907 19.5277 38.662 19.5277C39.3332 19.5277 39.9777 19.3026 40.4571 18.9006L50.1249 10.6292C51.4144 13.0671 51.8048 15.7834 51.2442 18.416C50.6835 21.0486 49.1984 23.4725 46.9868 25.3647C44.7751 27.2569 41.942 28.5275 38.8649 29.0072C35.7879 29.4868 32.613 29.1528 29.7635 28.0496L12.0434 43.2101C11.0232 44.083 9.63953 44.5733 8.19677 44.5733C6.75401 44.5733 5.37034 44.083 4.35016 43.2101C3.32997 42.3373 2.75684 41.1535 2.75684 39.9191C2.75684 38.6848 3.32997 37.5009 4.35016 36.6281L22.0702 21.4676C20.7808 19.0296 20.3903 16.3133 20.951 13.6807C21.5116 11.0481 22.9967 8.62419 25.2084 6.73201C27.42 4.83982 30.2531 3.56923 33.3302 3.08957C36.4073 2.6099 39.5821 2.94393 42.4317 4.04716L32.7895 12.2966L32.7638 12.3186Z" fill="#D9D9D9" fill-opacity="0.5" stroke="white" stroke-width="4" stroke-linecap="round" stroke-linejoin="round"/>
</svg>
