<svg width="88" height="88" viewBox="0 0 88 88" fill="none" xmlns="http://www.w3.org/2000/svg">
<path d="M43.9431 1.50073H43.935C42.6019 1.50073 41.2639 1.69945 39.9565 2.02675C39.2197 2.21363 38.4972 2.46187 37.7561 2.76166C37.5828 2.83251 37.4055 2.89293 37.2787 2.93615C37.2577 2.9433 37.2381 2.94999 37.2201 2.95617C37.1209 2.99027 37.049 3.01629 36.9908 3.03989C36.9633 3.0609 36.9244 3.09021 36.883 3.11921C36.816 3.16617 36.7193 3.22918 36.5982 3.28885M43.9431 1.50073L35.9344 1.94374M43.9431 1.50073L43.9512 1.50064M43.9431 1.50073L43.9512 1.50064M36.5982 3.28885C36.5975 3.28923 36.5967 3.28961 36.5959 3.28998L35.9344 1.94374M36.5982 3.28885C36.5988 3.28859 36.5993 3.28833 36.5998 3.28807L35.9344 1.94374M36.5982 3.28885C35.9186 3.62536 35.2457 4.01876 34.5904 4.45213L34.583 4.45703L34.5755 4.46184C34.3968 4.57705 34.2293 4.63796 34.119 4.67129M35.9344 1.94374C35.1912 2.3116 34.4638 2.73755 33.763 3.20098C33.7141 3.23246 33.6536 3.24478 33.593 3.2571C33.5311 3.26968 33.4693 3.28226 33.4199 3.31528M34.119 4.67129C34.1986 4.60398 34.237 4.57381 34.2687 4.55202L33.4199 3.31528M34.119 4.67129C34.1144 4.67268 34.1099 4.67402 34.1055 4.67531C34.0489 4.69199 33.9998 4.70372 33.9653 4.71148C33.9351 4.71824 33.9064 4.72408 33.8931 4.72677L33.8901 4.72739C33.8492 4.73571 33.8871 4.72913 33.9363 4.71421C33.9923 4.69721 34.1146 4.65523 34.2539 4.56205L33.4199 3.31528M34.119 4.67129C34.1139 4.67555 34.1087 4.67996 34.1034 4.68452C34.0953 4.69134 34.0866 4.69875 34.0773 4.70668C33.9983 4.774 33.8751 4.87897 33.7397 4.97895L33.7315 4.985L33.7232 4.99093C33.5076 5.14566 33.3138 5.27945 33.1347 5.40315C32.7567 5.66412 32.4438 5.88021 32.1277 6.15347M33.4199 3.31528C33.3066 3.39302 33.2062 3.47841 33.1052 3.56433C33.0225 3.63459 32.9395 3.7052 32.8486 3.77227C32.6847 3.88989 32.5185 4.00477 32.3521 4.11976C31.9359 4.4074 31.5186 4.69578 31.134 5.0297M31.134 5.0297L32.1371 6.14497C32.134 6.14779 32.1308 6.15062 32.1277 6.15347M31.134 5.0297C30.8204 5.31178 30.5351 5.64015 30.2502 5.96816C30.0892 6.15348 29.9283 6.33868 29.7625 6.51535L46.4452 1.71112C46.5812 1.7325 46.6956 1.73369 46.7684 1.73203C46.7742 1.7319 46.7799 1.73174 46.7855 1.73156C47.5826 1.87954 48.3942 2.14148 49.2733 2.4465L49.2733 2.44651C49.5612 2.5464 49.833 2.64791 50.1143 2.76178C50.4963 2.91761 50.8707 3.0919 51.2753 3.28968C52.8499 4.06965 54.3171 4.9826 55.6225 6.14755C55.7384 6.25134 55.8609 6.32888 55.9793 6.38557C56.081 6.4917 56.1881 6.61044 56.3058 6.74441C56.3546 6.80003 56.4072 6.86049 56.4624 6.92408C56.6307 7.1178 56.8243 7.34052 57.0156 7.5437L57.0245 7.55318L57.0336 7.56249C58.5201 9.08712 59.7801 10.6686 60.7973 12.5012L60.8015 12.5087L60.8057 12.5161C62.6117 15.6842 63.9498 19.2315 64.5106 22.8602L64.7521 24.4227L66.2997 24.0994C66.3351 24.092 66.3628 24.087 66.3847 24.0836C66.5466 24.1798 66.9107 24.5421 67.0676 25.6864C67.2321 26.8857 67.0803 28.5265 66.5089 30.2814L66.5084 30.2828C65.8484 32.3163 64.7717 33.8228 63.7981 34.6062L63.4102 34.9184L63.286 35.4006C61.6852 41.6141 58.3199 46.7201 54.0187 49.883L53.4073 50.3326V51.0914V54.8622V55.4836L53.8467 55.9229L57.5041 59.5803L57.6762 59.7525L57.894 59.8613L65.2088 63.5188L65.2139 63.5213C67.1573 64.4838 69.1063 65.434 71.051 66.3819L71.1381 66.4244C73.0424 67.3526 74.9425 68.2788 76.8368 69.2159C77.7226 69.7161 78.7117 70.1781 79.6328 70.6083C80.113 70.8326 80.5747 71.0483 80.9937 71.2562C82.3152 71.9121 83.4488 72.5915 84.3555 73.5136L84.3646 73.5229L84.374 73.532C85.4013 74.541 85.9152 75.8108 86.1573 77.3142C86.3832 78.7173 86.3585 80.2064 86.3322 81.7872C86.3295 81.9473 86.3269 82.1084 86.3244 82.2705L86.3229 82.37L86.3346 82.4689C86.4482 83.4308 86.3278 84.4477 85.9736 85.1792C85.6601 85.8267 85.202 86.2128 84.4508 86.2793C78.701 86.2889 72.9638 86.2857 67.2209 86.2824C64.3377 86.2808 61.4531 86.2792 58.5648 86.2792C55.3096 86.2792 52.0574 86.2796 48.8063 86.28C42.3072 86.2808 35.8124 86.2816 29.3059 86.2792H29.3053C27.0173 86.2792 24.731 86.2788 22.4452 86.2784C17.8938 86.2775 13.3444 86.2767 8.78767 86.2791C7.93616 86.2183 6.97826 86.2634 6.14278 86.3028C5.7609 86.3208 5.4046 86.3375 5.09572 86.3424C3.9998 86.3599 3.14096 86.2655 2.41252 85.9148C1.86034 85.5141 1.62045 84.9453 1.5452 84.0036C1.50463 83.4959 1.51853 82.9491 1.53941 82.3192C1.54057 82.2845 1.54174 82.2494 1.54293 82.2141C1.56215 81.6417 1.58406 80.9889 1.54252 80.3647L1.54157 80.3503L1.54034 80.336C1.26165 77.0885 2.40296 73.89 4.99924 72.2918C7.69032 70.9574 10.3731 69.6233 13.0553 68.2893C16.2519 66.6996 19.4478 65.1103 22.6562 63.5213L22.6613 63.5188L29.9761 59.8613L30.1938 59.7525L30.366 59.5803L34.0234 55.9229L34.4627 55.4836V54.8622V51.0914V50.3326L33.8515 49.883C29.5508 46.7201 26.1842 41.614 24.5861 35.4011L24.4618 34.918L24.0729 34.6055C23.0988 33.8228 22.0222 32.3166 21.3594 30.2814C20.788 28.5267 20.6366 26.8861 20.8014 25.6868C20.9587 24.5422 21.3232 24.1798 21.4854 24.0836C21.5065 24.0869 21.5333 24.0918 21.567 24.0989L23.1165 24.4254L23.3587 22.8605C23.9202 19.2315 25.2577 15.6842 27.0649 12.5166L27.0691 12.5091L27.0733 12.5016C28.0916 10.6682 29.3501 9.08662 30.8364 7.56262L30.8463 7.55239L30.8561 7.54197C31.0435 7.34236 31.2343 7.12268 31.4008 6.93104C31.4582 6.86491 31.5128 6.80212 31.5633 6.74464C31.7751 6.50354 31.9533 6.31141 32.1277 6.15347M31.134 5.0297L32.1174 6.16237C32.1208 6.15939 32.1243 6.15643 32.1277 6.15347M43.9512 1.50064C44.7711 1.4918 45.5816 1.57536 46.4449 1.71107L43.9512 1.50064ZM57.0034 6.49428C57.0034 6.49428 57.001 6.4948 56.9982 6.49541L57.0017 6.49467L57.0034 6.49428Z" fill="#E8E8E8" fill-opacity="0.5" stroke="white" stroke-width="3"/>
</svg>
